<svg width="32" height="32" viewBox="0 0 32 32" fill="none" xmlns="http://www.w3.org/2000/svg">
<path d="M9.90183 25.2105C11.0076 25.2105 11.9136 26.1357 11.9136 27.2787C11.9136 28.4081 11.0076 29.3333 9.90183 29.3333C8.7827 29.3333 7.87674 28.4081 7.87674 27.2787C7.87674 26.1357 8.7827 25.2105 9.90183 25.2105ZM24.8902 25.2105C25.996 25.2105 26.9019 26.1357 26.9019 27.2787C26.9019 28.4081 25.996 29.3333 24.8902 29.3333C23.771 29.3333 22.8651 28.4081 22.8651 27.2787C22.8651 26.1357 23.771 25.2105 24.8902 25.2105ZM3.70438 2.66683L3.84016 2.67832L7.01768 3.16681C7.47066 3.24981 7.80373 3.62944 7.8437 4.09207L8.09684 7.13999C8.13681 7.57677 8.4832 7.90333 8.90954 7.90333H26.9022C27.7149 7.90333 28.2478 8.18907 28.7807 8.81498C29.3136 9.4409 29.4069 10.3389 29.287 11.154L28.0213 20.08C27.7815 21.7959 26.3426 23.0599 24.6506 23.0599H10.1153C8.34331 23.0599 6.87779 21.6734 6.73124 19.8773L5.50553 5.04454L3.49376 4.69077C2.96084 4.59552 2.5878 4.06485 2.68106 3.52058C2.77432 2.96407 3.29392 2.59532 3.84016 2.67832L3.70438 2.66683ZM22.5189 12.9365H18.8285C18.2689 12.9365 17.8293 13.3855 17.8293 13.957C17.8293 14.5149 18.2689 14.9775 18.8285 14.9775H22.5189C23.0785 14.9775 23.5182 14.5149 23.5182 13.957C23.5182 13.3855 23.0785 12.9365 22.5189 12.9365Z" fill="#3ECEAB"/>
</svg>
