<svg width="32" height="32" viewBox="0 0 32 32" fill="none" xmlns="http://www.w3.org/2000/svg">
<path d="M17.3333 30.6667L9.33333 26.6667H14.6667V24L22.6667 28H17.3333V30.6667ZM6.66667 22.6667C4.77778 22.6667 3.19467 22.0276 1.91733 20.7493C0.639111 19.472 0 17.8889 0 16C0 14.1111 0.650222 12.528 1.95067 11.2507C3.25022 9.97245 4.82222 9.33334 6.66667 9.33334C8.37778 9.33334 9.81689 9.84445 10.984 10.8667C12.1502 11.8889 12.8889 13.1556 13.2 14.6667H14.0667L11.6667 8.00001H9.33333V5.33334H16V8.00001H14.5333L15 9.33334H21.4L19.4667 4.00001H16V1.33334H19.4667C20.0444 1.33334 20.5613 1.4889 21.0173 1.80001C21.4724 2.11112 21.8 2.53334 22 3.06668L24.2667 9.26668H25.3333C27.1778 9.26668 28.7502 9.91645 30.0507 11.216C31.3502 12.5165 32 14.0889 32 15.9333C32 17.8 31.3556 19.3889 30.0667 20.7C28.7778 22.0111 27.2 22.6667 25.3333 22.6667C23.7333 22.6667 22.328 22.1667 21.1173 21.1667C19.9058 20.1667 19.1333 18.8889 18.8 17.3333H13.2C12.8889 18.8667 12.1333 20.1391 10.9333 21.1507C9.73333 22.1613 8.31111 22.6667 6.66667 22.6667ZM6.66667 17.3333H10.4V14.6667H6.66667V17.3333ZM24 16.4667L26.5333 15.5333L25.2 12L22.7333 12.9333L24 16.4667ZM16.9333 14.6667H18.8C18.9111 14.1556 19.0613 13.6778 19.2507 13.2333C19.4391 12.7889 19.6889 12.3778 20 12H15.9333L16.9333 14.6667Z" fill="#4ACD87"/>
</svg>
