<svg width="32" height="32" viewBox="0 0 32 32" fill="none" xmlns="http://www.w3.org/2000/svg">
<path d="M23.8081 4C26.8534 4 29.3321 6.45602 29.3321 9.47352L29.3334 13.0433C29.3334 13.3049 29.2281 13.5585 29.0414 13.7435C28.8534 13.9298 28.6001 14.0341 28.3334 14.0341C27.2387 14.0341 26.3481 14.9167 26.3481 16.0013C26.3481 17.086 27.2387 17.9685 28.3334 17.9685C28.8854 17.9685 29.3334 18.4124 29.3334 18.9594V22.5278C29.3334 25.5453 26.8561 28 23.8107 28H8.19075C5.14541 28 2.66675 25.5453 2.66675 22.5278V18.9594C2.66675 18.4124 3.11475 17.9685 3.66675 17.9685C4.76275 17.9685 5.65341 17.086 5.65341 16.0013C5.65341 14.9444 4.79875 14.1491 3.66675 14.1491C3.40141 14.1491 3.14808 14.0447 2.96008 13.8584C2.77208 13.6721 2.66675 13.4198 2.66675 13.1582L2.66941 9.47352C2.66941 6.45602 5.14675 4 8.19208 4H23.8081ZM16.0027 10.8713C15.6241 10.8713 15.2854 11.08 15.1161 11.4156L14.1441 13.3669L11.9761 13.6801C11.6014 13.7329 11.2947 13.9866 11.1761 14.3433C11.0587 14.7 11.1534 15.0858 11.4254 15.3474L12.9974 16.864L12.6267 19.0083C12.5627 19.3782 12.7134 19.7455 13.0201 19.9661C13.1934 20.089 13.3947 20.1524 13.5987 20.1524C13.7547 20.1524 13.9121 20.1141 14.0561 20.0388L16.0001 19.0268L17.9401 20.0361C18.2761 20.2145 18.6747 20.1867 18.9801 19.9648C19.2881 19.7455 19.4387 19.3782 19.3747 19.0083L19.0027 16.864L20.5747 15.3474C20.8481 15.0858 20.9427 14.7 20.8241 14.3433C20.7067 13.9866 20.4001 13.7329 20.0294 13.6814L17.8574 13.3669L16.8854 11.4169C16.7187 11.0814 16.3801 10.8726 16.0027 10.8713Z" fill="#F3BA2F"/>
</svg>
